<mxfile host="app.diagrams.net" modified="2023-11-29T06:05:25.163Z" agent="Mozilla/5.0 (Windows NT 10.0; Win64; x64) AppleWebKit/537.36 (KHTML, like Gecko) Chrome/119.0.0.0 Safari/537.36" etag="rIne_NpOm6cnitv4W9WG" version="22.1.4" type="github">
  <diagram name="第 1 页" id="wmtw0mjW5K8laOdtFt9j">
    <mxGraphModel dx="2062" dy="638" grid="1" gridSize="10" guides="1" tooltips="1" connect="1" arrows="1" fold="1" page="1" pageScale="1" pageWidth="827" pageHeight="1169" math="0" shadow="0">
      <root>
        <mxCell id="0" />
        <mxCell id="1" parent="0" />
        <mxCell id="46mbo0AD8bIb3ruqI7Su-12" style="edgeStyle=orthogonalEdgeStyle;rounded=0;orthogonalLoop=1;jettySize=auto;html=1;" edge="1" parent="1" source="46mbo0AD8bIb3ruqI7Su-1">
          <mxGeometry relative="1" as="geometry">
            <mxPoint x="240" y="142.5" as="targetPoint" />
          </mxGeometry>
        </mxCell>
        <mxCell id="46mbo0AD8bIb3ruqI7Su-1" value="PNT-SVRSVC&lt;br&gt;192.168.110.52&lt;br&gt;" style="fontColor=#0066CC;verticalAlign=top;verticalLabelPosition=bottom;labelPosition=center;align=center;html=1;outlineConnect=0;fillColor=#CCCCCC;strokeColor=#6881B3;gradientColor=none;gradientDirection=north;strokeWidth=2;shape=mxgraph.networks.monitor;" vertex="1" parent="1">
          <mxGeometry x="90" y="110" width="80" height="65" as="geometry" />
        </mxCell>
        <mxCell id="46mbo0AD8bIb3ruqI7Su-2" value="PNT-SVRBPA&lt;br&gt;192.168.110.53" style="fontColor=#0066CC;verticalAlign=top;verticalLabelPosition=bottom;labelPosition=center;align=center;html=1;outlineConnect=0;fillColor=#CCCCCC;strokeColor=#6881B3;gradientColor=none;gradientDirection=north;strokeWidth=2;shape=mxgraph.networks.monitor;" vertex="1" parent="1">
          <mxGeometry x="250" y="110" width="80" height="65" as="geometry" />
        </mxCell>
        <mxCell id="46mbo0AD8bIb3ruqI7Su-16" style="edgeStyle=orthogonalEdgeStyle;rounded=0;orthogonalLoop=1;jettySize=auto;html=1;" edge="1" parent="1" source="46mbo0AD8bIb3ruqI7Su-3" target="46mbo0AD8bIb3ruqI7Su-2">
          <mxGeometry relative="1" as="geometry" />
        </mxCell>
        <mxCell id="46mbo0AD8bIb3ruqI7Su-3" value="192.168.110.54" style="fontColor=#0066CC;verticalAlign=top;verticalLabelPosition=bottom;labelPosition=center;align=center;html=1;outlineConnect=0;fillColor=#CCCCCC;strokeColor=#6881B3;gradientColor=none;gradientDirection=north;strokeWidth=2;shape=mxgraph.networks.monitor;" vertex="1" parent="1">
          <mxGeometry x="390" y="110" width="80" height="65" as="geometry" />
        </mxCell>
        <mxCell id="46mbo0AD8bIb3ruqI7Su-15" style="edgeStyle=orthogonalEdgeStyle;rounded=0;orthogonalLoop=1;jettySize=auto;html=1;" edge="1" parent="1" source="46mbo0AD8bIb3ruqI7Su-4" target="46mbo0AD8bIb3ruqI7Su-5">
          <mxGeometry relative="1" as="geometry" />
        </mxCell>
        <mxCell id="46mbo0AD8bIb3ruqI7Su-4" value="DC&lt;br&gt;192.168.110.55&lt;br&gt;" style="fontColor=#0066CC;verticalAlign=top;verticalLabelPosition=bottom;labelPosition=center;align=center;html=1;outlineConnect=0;fillColor=#CCCCCC;strokeColor=#6881B3;gradientColor=none;gradientDirection=north;strokeWidth=2;shape=mxgraph.networks.monitor;" vertex="1" parent="1">
          <mxGeometry x="520" y="110" width="80" height="65" as="geometry" />
        </mxCell>
        <mxCell id="46mbo0AD8bIb3ruqI7Su-19" style="edgeStyle=orthogonalEdgeStyle;rounded=0;orthogonalLoop=1;jettySize=auto;html=1;" edge="1" parent="1" source="46mbo0AD8bIb3ruqI7Su-5" target="46mbo0AD8bIb3ruqI7Su-4">
          <mxGeometry relative="1" as="geometry" />
        </mxCell>
        <mxCell id="46mbo0AD8bIb3ruqI7Su-24" style="edgeStyle=orthogonalEdgeStyle;rounded=0;orthogonalLoop=1;jettySize=auto;html=1;" edge="1" parent="1" source="46mbo0AD8bIb3ruqI7Su-5">
          <mxGeometry relative="1" as="geometry">
            <mxPoint x="680" y="302.5" as="targetPoint" />
          </mxGeometry>
        </mxCell>
        <mxCell id="46mbo0AD8bIb3ruqI7Su-5" value="Linux zabbix&lt;br&gt;192.168.210.16" style="fontColor=#0066CC;verticalAlign=top;verticalLabelPosition=bottom;labelPosition=center;align=center;html=1;outlineConnect=0;fillColor=#CCCCCC;strokeColor=#6881B3;gradientColor=none;gradientDirection=north;strokeWidth=2;shape=mxgraph.networks.monitor;" vertex="1" parent="1">
          <mxGeometry x="520" y="270" width="80" height="65" as="geometry" />
        </mxCell>
        <mxCell id="46mbo0AD8bIb3ruqI7Su-6" value="&lt;br&gt;ZPH-SVRDC01&lt;br&gt;192.168.210.10" style="fontColor=#0066CC;verticalAlign=top;verticalLabelPosition=bottom;labelPosition=center;align=center;html=1;outlineConnect=0;fillColor=#CCCCCC;strokeColor=#6881B3;gradientColor=none;gradientDirection=north;strokeWidth=2;shape=mxgraph.networks.monitor;" vertex="1" parent="1">
          <mxGeometry x="390" y="271" width="80" height="65" as="geometry" />
        </mxCell>
        <mxCell id="46mbo0AD8bIb3ruqI7Su-7" value="192.168.110.1" style="fontColor=#0066CC;verticalAlign=top;verticalLabelPosition=bottom;labelPosition=center;align=center;html=1;outlineConnect=0;fillColor=#CCCCCC;strokeColor=#6881B3;gradientColor=none;gradientDirection=north;strokeWidth=2;shape=mxgraph.networks.firewall;" vertex="1" parent="1">
          <mxGeometry x="-100" y="92.5" width="100" height="100" as="geometry" />
        </mxCell>
        <mxCell id="46mbo0AD8bIb3ruqI7Su-9" style="edgeStyle=orthogonalEdgeStyle;rounded=0;orthogonalLoop=1;jettySize=auto;html=1;entryX=0;entryY=0.5;entryDx=0;entryDy=0;entryPerimeter=0;" edge="1" parent="1" source="46mbo0AD8bIb3ruqI7Su-8" target="46mbo0AD8bIb3ruqI7Su-7">
          <mxGeometry relative="1" as="geometry">
            <mxPoint x="-150" y="143.5" as="targetPoint" />
            <Array as="points">
              <mxPoint x="-260" y="143" />
              <mxPoint x="-260" y="144" />
              <mxPoint x="-100" y="144" />
            </Array>
          </mxGeometry>
        </mxCell>
        <mxCell id="46mbo0AD8bIb3ruqI7Su-8" value="10.10.17.46 Kali&amp;nbsp;" style="fontColor=#333333;verticalAlign=top;verticalLabelPosition=bottom;labelPosition=center;align=center;html=1;outlineConnect=0;fillColor=#f5f5f5;strokeColor=#666666;gradientDirection=north;strokeWidth=2;shape=mxgraph.networks.laptop;" vertex="1" parent="1">
          <mxGeometry x="-440" y="115" width="100" height="55" as="geometry" />
        </mxCell>
        <mxCell id="46mbo0AD8bIb3ruqI7Su-10" style="edgeStyle=orthogonalEdgeStyle;rounded=0;orthogonalLoop=1;jettySize=auto;html=1;entryX=0;entryY=0.5;entryDx=0;entryDy=0;entryPerimeter=0;" edge="1" parent="1" source="46mbo0AD8bIb3ruqI7Su-7" target="46mbo0AD8bIb3ruqI7Su-1">
          <mxGeometry relative="1" as="geometry" />
        </mxCell>
        <mxCell id="46mbo0AD8bIb3ruqI7Su-11" value="入口 10.10.110.35&amp;nbsp;&lt;br&gt;192.168.110.51&lt;br&gt;" style="fontColor=#0066CC;verticalAlign=top;verticalLabelPosition=bottom;labelPosition=center;align=center;html=1;outlineConnect=0;fillColor=#CCCCCC;strokeColor=#6881B3;gradientColor=none;gradientDirection=north;strokeWidth=2;shape=mxgraph.networks.monitor;" vertex="1" parent="1">
          <mxGeometry x="-260" y="111" width="80" height="65" as="geometry" />
        </mxCell>
        <mxCell id="46mbo0AD8bIb3ruqI7Su-13" style="edgeStyle=orthogonalEdgeStyle;rounded=0;orthogonalLoop=1;jettySize=auto;html=1;entryX=0;entryY=0.5;entryDx=0;entryDy=0;entryPerimeter=0;" edge="1" parent="1" source="46mbo0AD8bIb3ruqI7Su-2" target="46mbo0AD8bIb3ruqI7Su-3">
          <mxGeometry relative="1" as="geometry" />
        </mxCell>
        <mxCell id="46mbo0AD8bIb3ruqI7Su-14" style="edgeStyle=orthogonalEdgeStyle;rounded=0;orthogonalLoop=1;jettySize=auto;html=1;entryX=0;entryY=0.5;entryDx=0;entryDy=0;entryPerimeter=0;" edge="1" parent="1" source="46mbo0AD8bIb3ruqI7Su-3" target="46mbo0AD8bIb3ruqI7Su-4">
          <mxGeometry relative="1" as="geometry" />
        </mxCell>
        <mxCell id="46mbo0AD8bIb3ruqI7Su-17" style="edgeStyle=orthogonalEdgeStyle;rounded=0;orthogonalLoop=1;jettySize=auto;html=1;entryX=1;entryY=0.5;entryDx=0;entryDy=0;entryPerimeter=0;" edge="1" parent="1" source="46mbo0AD8bIb3ruqI7Su-2" target="46mbo0AD8bIb3ruqI7Su-1">
          <mxGeometry relative="1" as="geometry" />
        </mxCell>
        <mxCell id="46mbo0AD8bIb3ruqI7Su-18" style="edgeStyle=orthogonalEdgeStyle;rounded=0;orthogonalLoop=1;jettySize=auto;html=1;entryX=1;entryY=0.5;entryDx=0;entryDy=0;entryPerimeter=0;" edge="1" parent="1" source="46mbo0AD8bIb3ruqI7Su-1" target="46mbo0AD8bIb3ruqI7Su-7">
          <mxGeometry relative="1" as="geometry" />
        </mxCell>
        <mxCell id="46mbo0AD8bIb3ruqI7Su-20" value="&lt;br&gt;ZPH-SVRMGMT1&lt;br&gt;192.168.210.11" style="fontColor=#0066CC;verticalAlign=top;verticalLabelPosition=bottom;labelPosition=center;align=center;html=1;outlineConnect=0;fillColor=#CCCCCC;strokeColor=#6881B3;gradientColor=none;gradientDirection=north;strokeWidth=2;shape=mxgraph.networks.monitor;" vertex="1" parent="1">
          <mxGeometry x="240" y="270" width="80" height="65" as="geometry" />
        </mxCell>
        <mxCell id="46mbo0AD8bIb3ruqI7Su-21" value="&lt;br&gt;ZPH-SVRCA01&lt;br&gt;192.168.210.12" style="fontColor=#0066CC;verticalAlign=top;verticalLabelPosition=bottom;labelPosition=center;align=center;html=1;outlineConnect=0;fillColor=#CCCCCC;strokeColor=#6881B3;gradientColor=none;gradientDirection=north;strokeWidth=2;shape=mxgraph.networks.monitor;" vertex="1" parent="1">
          <mxGeometry x="89" y="270" width="80" height="65" as="geometry" />
        </mxCell>
        <mxCell id="46mbo0AD8bIb3ruqI7Su-23" value="&lt;br&gt;ZPH-SVRADFS1&lt;br&gt;192.168.210.14&amp;nbsp;" style="fontColor=#0066CC;verticalAlign=top;verticalLabelPosition=bottom;labelPosition=center;align=center;html=1;outlineConnect=0;fillColor=#CCCCCC;strokeColor=#6881B3;gradientColor=none;gradientDirection=north;strokeWidth=2;shape=mxgraph.networks.monitor;" vertex="1" parent="1">
          <mxGeometry x="-40" y="270" width="80" height="65" as="geometry" />
        </mxCell>
        <mxCell id="46mbo0AD8bIb3ruqI7Su-25" value="zabbix web server&lt;br&gt;192.168.210.13" style="fontColor=#0066CC;verticalAlign=top;verticalLabelPosition=bottom;labelPosition=center;align=center;html=1;outlineConnect=0;fillColor=#CCCCCC;strokeColor=#6881B3;gradientColor=none;gradientDirection=north;strokeWidth=2;shape=mxgraph.networks.monitor;" vertex="1" parent="1">
          <mxGeometry x="690" y="271" width="80" height="65" as="geometry" />
        </mxCell>
        <mxCell id="46mbo0AD8bIb3ruqI7Su-26" value="&lt;br&gt;ZPH-SVRSQL01&lt;br&gt;192.168.210.15" style="fontColor=#0066CC;verticalAlign=top;verticalLabelPosition=bottom;labelPosition=center;align=center;html=1;outlineConnect=0;fillColor=#CCCCCC;strokeColor=#6881B3;gradientColor=none;gradientDirection=north;strokeWidth=2;shape=mxgraph.networks.monitor;" vertex="1" parent="1">
          <mxGeometry x="-170" y="271" width="80" height="65" as="geometry" />
        </mxCell>
        <mxCell id="46mbo0AD8bIb3ruqI7Su-27" value="&lt;br&gt;ZPH-SVRCDC01&lt;br&gt;192.168.210.16" style="fontColor=#0066CC;verticalAlign=top;verticalLabelPosition=bottom;labelPosition=center;align=center;html=1;outlineConnect=0;fillColor=#CCCCCC;strokeColor=#6881B3;gradientColor=none;gradientDirection=north;strokeWidth=2;shape=mxgraph.networks.monitor;" vertex="1" parent="1">
          <mxGeometry x="-319" y="271" width="80" height="65" as="geometry" />
        </mxCell>
        <mxCell id="46mbo0AD8bIb3ruqI7Su-30" value="&lt;br&gt;ZSM-SVRCSQL02&lt;br&gt;192.168.210.19" style="fontColor=#0066CC;verticalAlign=top;verticalLabelPosition=bottom;labelPosition=center;align=center;html=1;outlineConnect=0;fillColor=#CCCCCC;strokeColor=#6881B3;gradientColor=none;gradientDirection=north;strokeWidth=2;shape=mxgraph.networks.monitor;" vertex="1" parent="1">
          <mxGeometry x="-170" y="440" width="80" height="65" as="geometry" />
        </mxCell>
        <mxCell id="46mbo0AD8bIb3ruqI7Su-31" value="192.168.210.18" style="fontColor=#0066CC;verticalAlign=top;verticalLabelPosition=bottom;labelPosition=center;align=center;html=1;outlineConnect=0;fillColor=#CCCCCC;strokeColor=#6881B3;gradientColor=none;gradientDirection=north;strokeWidth=2;shape=mxgraph.networks.monitor;" vertex="1" parent="1">
          <mxGeometry x="-170" y="580" width="80" height="65" as="geometry" />
        </mxCell>
        <mxCell id="46mbo0AD8bIb3ruqI7Su-32" value="192.168.210.17" style="fontColor=#0066CC;verticalAlign=top;verticalLabelPosition=bottom;labelPosition=center;align=center;html=1;outlineConnect=0;fillColor=#CCCCCC;strokeColor=#6881B3;gradientColor=none;gradientDirection=north;strokeWidth=2;shape=mxgraph.networks.monitor;" vertex="1" parent="1">
          <mxGeometry x="-30" y="570" width="80" height="65" as="geometry" />
        </mxCell>
        <mxCell id="46mbo0AD8bIb3ruqI7Su-33" value="" style="fontColor=#0066CC;verticalAlign=top;verticalLabelPosition=bottom;labelPosition=center;align=center;html=1;outlineConnect=0;fillColor=#CCCCCC;strokeColor=#6881B3;gradientColor=none;gradientDirection=north;strokeWidth=2;shape=mxgraph.networks.monitor;" vertex="1" parent="1">
          <mxGeometry x="-30" y="470" width="80" height="65" as="geometry" />
        </mxCell>
      </root>
    </mxGraphModel>
  </diagram>
</mxfile>
